<mxfile host="app.diagrams.net" modified="2021-07-26T07:35:02.090Z" agent="5.0 (Windows NT 10.0; Win64; x64) AppleWebKit/537.36 (KHTML, like Gecko) Chrome/91.0.4472.164 Safari/537.36" etag="9CLCHo5RHTWE2RuwHW_I" version="14.9.2" type="github">
  <diagram id="tbea0CL23gP_UN3k06ts" name="Page-1">
    <mxGraphModel dx="1865" dy="1716" grid="1" gridSize="10" guides="1" tooltips="1" connect="1" arrows="1" fold="1" page="1" pageScale="1" pageWidth="827" pageHeight="1169" math="0" shadow="0">
      <root>
        <mxCell id="0" />
        <mxCell id="1" parent="0" />
        <mxCell id="HDbjCqJoe0LcIfVdtyOG-6" value="int _printf(const char *format, ...);" style="html=1;dashed=0;whitespace=wrap;shape=mxgraph.dfd.start" parent="1" vertex="1">
          <mxGeometry x="280" y="-70" width="180" height="60" as="geometry" />
        </mxCell>
        <mxCell id="HDbjCqJoe0LcIfVdtyOG-8" value="" style="endArrow=classic;html=1;exitX=0.451;exitY=0.986;exitDx=0;exitDy=0;exitPerimeter=0;" parent="1" source="HDbjCqJoe0LcIfVdtyOG-6" edge="1">
          <mxGeometry width="50" height="50" relative="1" as="geometry">
            <mxPoint x="390" y="310" as="sourcePoint" />
            <mxPoint x="360" y="40" as="targetPoint" />
          </mxGeometry>
        </mxCell>
        <mxCell id="HDbjCqJoe0LcIfVdtyOG-10" value="Variables &lt;br&gt;int count;&lt;br&gt;int aux;&lt;br&gt;" style="shape=parallelogram;perimeter=parallelogramPerimeter;whiteSpace=wrap;html=1;dashed=0;" parent="1" vertex="1">
          <mxGeometry x="290" y="40" width="140" height="80" as="geometry" />
        </mxCell>
        <mxCell id="HDbjCqJoe0LcIfVdtyOG-11" value="" style="endArrow=classic;html=1;" parent="1" edge="1">
          <mxGeometry width="50" height="50" relative="1" as="geometry">
            <mxPoint x="359.5" y="120" as="sourcePoint" />
            <mxPoint x="359.84" y="150" as="targetPoint" />
          </mxGeometry>
        </mxCell>
        <mxCell id="HDbjCqJoe0LcIfVdtyOG-12" value="exit" style="html=1;dashed=0;whitespace=wrap;shape=mxgraph.dfd.start" parent="1" vertex="1">
          <mxGeometry x="300" y="520" width="120" height="60" as="geometry" />
        </mxCell>
        <mxCell id="HDbjCqJoe0LcIfVdtyOG-14" value="&lt;div&gt;&lt;span&gt;Initialize&lt;/span&gt;&lt;/div&gt;&lt;div&gt;&lt;span&gt;count = 0&lt;/span&gt;&lt;/div&gt;&lt;div&gt;&lt;span&gt;aux = 0&lt;/span&gt;&lt;/div&gt;&lt;div&gt;&lt;span&gt;cuenta cantidad de caracteres&lt;/span&gt;&lt;/div&gt;&lt;div&gt;&lt;span&gt;loop recorre el string para obtener la cantidad de&amp;nbsp;&lt;/span&gt;&lt;/div&gt;&lt;div&gt;&lt;span&gt;elamentos&lt;/span&gt;&lt;/div&gt;" style="html=1;dashed=0;whitespace=wrap;align=center;" parent="1" vertex="1">
          <mxGeometry x="220" y="151" width="300" height="159" as="geometry" />
        </mxCell>
        <mxCell id="HDbjCqJoe0LcIfVdtyOG-16" value="" style="dashed=0;outlineConnect=0;html=1;align=center;labelPosition=center;verticalLabelPosition=bottom;verticalAlign=top;shape=mxgraph.webicons.twitter;fillColor=#49EAF7;gradientColor=#137BD0" parent="1" vertex="1">
          <mxGeometry x="-133.54999999999995" y="-98.49000000000001" width="102.4" height="102.4" as="geometry" />
        </mxCell>
        <mxCell id="HDbjCqJoe0LcIfVdtyOG-18" value="" style="endArrow=none;dashed=1;html=1;dashPattern=1 3;strokeWidth=2;exitX=0;exitY=0.5;exitDx=0;exitDy=0;exitPerimeter=0;" parent="1" source="HDbjCqJoe0LcIfVdtyOG-6" target="HDbjCqJoe0LcIfVdtyOG-21" edge="1">
          <mxGeometry width="50" height="50" relative="1" as="geometry">
            <mxPoint x="390" y="260" as="sourcePoint" />
            <mxPoint x="200" y="70" as="targetPoint" />
          </mxGeometry>
        </mxCell>
        <mxCell id="HDbjCqJoe0LcIfVdtyOG-21" value="&lt;h1&gt;Entry point&lt;/h1&gt;" style="text;html=1;strokeColor=none;fillColor=none;spacing=5;spacingTop=-20;whiteSpace=wrap;overflow=hidden;rounded=0;" parent="1" vertex="1">
          <mxGeometry x="50" y="-90" width="190" height="120" as="geometry" />
        </mxCell>
        <mxCell id="HDbjCqJoe0LcIfVdtyOG-22" value="&lt;br&gt;determina si hay elementos&amp;nbsp;" style="rhombus;whiteSpace=wrap;html=1;" parent="1" vertex="1">
          <mxGeometry x="287.5" y="350" width="145" height="140" as="geometry" />
        </mxCell>
        <mxCell id="HDbjCqJoe0LcIfVdtyOG-27" value="" style="endArrow=classic;html=1;exitX=0;exitY=0.5;exitDx=0;exitDy=0;entryX=1;entryY=0.5;entryDx=0;entryDy=0;" parent="1" source="HDbjCqJoe0LcIfVdtyOG-22" target="HDbjCqJoe0LcIfVdtyOG-34" edge="1">
          <mxGeometry width="50" height="50" relative="1" as="geometry">
            <mxPoint x="310" y="330" as="sourcePoint" />
            <mxPoint x="150" y="420" as="targetPoint" />
          </mxGeometry>
        </mxCell>
        <mxCell id="HDbjCqJoe0LcIfVdtyOG-29" value="LOOP" style="text;html=1;strokeColor=none;fillColor=none;align=center;verticalAlign=middle;whiteSpace=wrap;rounded=0;" parent="1" vertex="1">
          <mxGeometry x="260" y="350" width="40" height="20" as="geometry" />
        </mxCell>
        <mxCell id="HDbjCqJoe0LcIfVdtyOG-30" value="if" style="text;html=1;align=center;verticalAlign=middle;resizable=0;points=[];autosize=1;strokeColor=#9933FF;" parent="1" vertex="1">
          <mxGeometry x="260" y="390" width="20" height="20" as="geometry" />
        </mxCell>
        <mxCell id="HDbjCqJoe0LcIfVdtyOG-32" value="else" style="text;html=1;align=center;verticalAlign=middle;resizable=0;points=[];autosize=1;strokeColor=none;" parent="1" vertex="1">
          <mxGeometry x="432.5" y="390" width="40" height="20" as="geometry" />
        </mxCell>
        <mxCell id="HDbjCqJoe0LcIfVdtyOG-33" value="" style="endArrow=classic;html=1;exitX=1;exitY=0.5;exitDx=0;exitDy=0;" parent="1" source="HDbjCqJoe0LcIfVdtyOG-22" edge="1">
          <mxGeometry width="50" height="50" relative="1" as="geometry">
            <mxPoint x="310" y="320" as="sourcePoint" />
            <mxPoint x="480" y="420" as="targetPoint" />
          </mxGeometry>
        </mxCell>
        <mxCell id="HDbjCqJoe0LcIfVdtyOG-34" value="Return(&quot; characters lenght&quot;);" style="rounded=0;whiteSpace=wrap;html=1;" parent="1" vertex="1">
          <mxGeometry x="119.99999999999999" y="390" width="120" height="60" as="geometry" />
        </mxCell>
        <mxCell id="HDbjCqJoe0LcIfVdtyOG-36" value="print ERROR" style="rounded=0;whiteSpace=wrap;html=1;" parent="1" vertex="1">
          <mxGeometry x="480" y="390" width="120" height="60" as="geometry" />
        </mxCell>
        <mxCell id="HDbjCqJoe0LcIfVdtyOG-37" value="" style="endArrow=classic;html=1;entryX=0;entryY=0.5;entryDx=0;entryDy=0;entryPerimeter=0;" parent="1" target="HDbjCqJoe0LcIfVdtyOG-12" edge="1">
          <mxGeometry width="50" height="50" relative="1" as="geometry">
            <mxPoint x="180" y="550" as="sourcePoint" />
            <mxPoint x="295" y="551" as="targetPoint" />
          </mxGeometry>
        </mxCell>
        <mxCell id="HDbjCqJoe0LcIfVdtyOG-39" value="" style="endArrow=classic;html=1;entryX=1;entryY=0.5;entryDx=0;entryDy=0;entryPerimeter=0;" parent="1" target="HDbjCqJoe0LcIfVdtyOG-12" edge="1">
          <mxGeometry width="50" height="50" relative="1" as="geometry">
            <mxPoint x="540" y="550" as="sourcePoint" />
            <mxPoint x="422" y="550" as="targetPoint" />
          </mxGeometry>
        </mxCell>
        <mxCell id="HDbjCqJoe0LcIfVdtyOG-40" value="" style="endArrow=none;html=1;entryX=0.5;entryY=1;entryDx=0;entryDy=0;" parent="1" target="HDbjCqJoe0LcIfVdtyOG-36" edge="1">
          <mxGeometry width="50" height="50" relative="1" as="geometry">
            <mxPoint x="540" y="550" as="sourcePoint" />
            <mxPoint x="350" y="480" as="targetPoint" />
          </mxGeometry>
        </mxCell>
        <mxCell id="HDbjCqJoe0LcIfVdtyOG-41" value="" style="endArrow=none;html=1;entryX=0.5;entryY=1;entryDx=0;entryDy=0;" parent="1" target="HDbjCqJoe0LcIfVdtyOG-34" edge="1">
          <mxGeometry width="50" height="50" relative="1" as="geometry">
            <mxPoint x="180" y="550" as="sourcePoint" />
            <mxPoint x="350" y="480" as="targetPoint" />
          </mxGeometry>
        </mxCell>
        <mxCell id="HDbjCqJoe0LcIfVdtyOG-46" value="" style="endArrow=classic;html=1;exitX=0.471;exitY=1.03;exitDx=0;exitDy=0;exitPerimeter=0;" parent="1" source="HDbjCqJoe0LcIfVdtyOG-14" edge="1">
          <mxGeometry width="50" height="50" relative="1" as="geometry">
            <mxPoint x="280" y="390" as="sourcePoint" />
            <mxPoint x="361" y="350" as="targetPoint" />
          </mxGeometry>
        </mxCell>
        <mxCell id="HDbjCqJoe0LcIfVdtyOG-48" value="if( aux &amp;gt; 0);&lt;br&gt;return(lenght)" style="text;html=1;strokeColor=none;fillColor=none;align=center;verticalAlign=middle;whiteSpace=wrap;rounded=0;" parent="1" vertex="1">
          <mxGeometry x="40" y="300" width="150" height="20" as="geometry" />
        </mxCell>
        <mxCell id="HDbjCqJoe0LcIfVdtyOG-50" value="&lt;h1&gt;&amp;nbsp;chart jessica[11] = {entry point}&amp;nbsp;&lt;/h1&gt;&lt;div&gt;printf( &quot;%s, %c&amp;nbsp; &#39;/n&#39;&quot;, jessica, 5 );&amp;nbsp;&lt;/div&gt;" style="text;html=1;strokeColor=none;fillColor=none;spacing=5;spacingTop=-20;whiteSpace=wrap;overflow=hidden;rounded=0;" parent="1" vertex="1">
          <mxGeometry x="530" y="-60" width="250" as="geometry" />
        </mxCell>
      </root>
    </mxGraphModel>
  </diagram>
</mxfile>
